<svg xmlns="http://www.w3.org/2000/svg" viewBox="0 0 16 16" shape-rendering="crispEdges">
  <rect x="0" y="0" width="16" height="1" fill="#000000"/>
  <rect x="0" y="1" width="1" height="1" fill="#000000"/>
  <rect x="1" y="1" width="13" height="1" fill="#fff3c4"/>
  <rect x="14" y="1" width="1" height="1" fill="#9c7600"/>
  <rect x="15" y="1" width="1" height="1" fill="#000000"/>
  <rect x="0" y="2" width="1" height="1" fill="#000000"/>
  <rect x="1" y="2" width="1" height="1" fill="#fff3c4"/>
  <rect x="2" y="2" width="2" height="1" fill="#fcc20f"/>
  <rect x="4" y="2" width="7" height="1" fill="#000000"/>
  <rect x="11" y="2" width="3" height="1" fill="#fcc20f"/>
  <rect x="14" y="2" width="1" height="1" fill="#9c7600"/>
  <rect x="15" y="2" width="1" height="1" fill="#000000"/>
  <rect x="0" y="3" width="1" height="1" fill="#000000"/>
  <rect x="1" y="3" width="1" height="1" fill="#fff3c4"/>
  <rect x="2" y="3" width="2" height="1" fill="#fcc20f"/>
  <rect x="4" y="3" width="1" height="1" fill="#000000"/>
  <rect x="5" y="3" width="5" height="1" fill="#ffffff"/>
  <rect x="10" y="3" width="2" height="1" fill="#000000"/>
  <rect x="12" y="3" width="2" height="1" fill="#fcc20f"/>
  <rect x="14" y="3" width="1" height="1" fill="#9c7600"/>
  <rect x="15" y="3" width="1" height="1" fill="#000000"/>
  <rect x="0" y="4" width="1" height="1" fill="#000000"/>
  <rect x="1" y="4" width="1" height="1" fill="#fff3c4"/>
  <rect x="2" y="4" width="2" height="1" fill="#fcc20f"/>
  <rect x="4" y="4" width="1" height="1" fill="#000000"/>
  <rect x="5" y="4" width="5" height="1" fill="#ffffff"/>
  <rect x="10" y="4" width="3" height="1" fill="#000000"/>
  <rect x="13" y="4" width="1" height="1" fill="#fcc20f"/>
  <rect x="14" y="4" width="1" height="1" fill="#9c7600"/>
  <rect x="15" y="4" width="1" height="1" fill="#000000"/>
  <rect x="0" y="5" width="1" height="1" fill="#000000"/>
  <rect x="1" y="5" width="1" height="1" fill="#fff3c4"/>
  <rect x="2" y="5" width="2" height="1" fill="#fcc20f"/>
  <rect x="4" y="5" width="1" height="1" fill="#000000"/>
  <rect x="5" y="5" width="7" height="1" fill="#ffffff"/>
  <rect x="12" y="5" width="1" height="1" fill="#000000"/>
  <rect x="13" y="5" width="1" height="1" fill="#fcc20f"/>
  <rect x="14" y="5" width="1" height="1" fill="#9c7600"/>
  <rect x="15" y="5" width="1" height="1" fill="#000000"/>
  <rect x="0" y="6" width="1" height="1" fill="#000000"/>
  <rect x="1" y="6" width="1" height="1" fill="#fff3c4"/>
  <rect x="2" y="6" width="9" height="1" fill="#000000"/>
  <rect x="11" y="6" width="1" height="1" fill="#ffffff"/>
  <rect x="12" y="6" width="1" height="1" fill="#000000"/>
  <rect x="13" y="6" width="1" height="1" fill="#fcc20f"/>
  <rect x="14" y="6" width="1" height="1" fill="#9c7600"/>
  <rect x="15" y="6" width="1" height="1" fill="#000000"/>
  <rect x="0" y="7" width="1" height="1" fill="#000000"/>
  <rect x="1" y="7" width="1" height="1" fill="#fff3c4"/>
  <rect x="2" y="7" width="1" height="1" fill="#000000"/>
  <rect x="3" y="7" width="7" height="1" fill="#9ab6c8"/>
  <rect x="10" y="7" width="1" height="1" fill="#000000"/>
  <rect x="11" y="7" width="1" height="1" fill="#ffffff"/>
  <rect x="12" y="7" width="1" height="1" fill="#000000"/>
  <rect x="13" y="7" width="1" height="1" fill="#fcc20f"/>
  <rect x="14" y="7" width="1" height="1" fill="#9c7600"/>
  <rect x="15" y="7" width="1" height="1" fill="#000000"/>
  <rect x="0" y="8" width="1" height="1" fill="#000000"/>
  <rect x="1" y="8" width="1" height="1" fill="#fff3c4"/>
  <rect x="2" y="8" width="1" height="1" fill="#000000"/>
  <rect x="3" y="8" width="7" height="1" fill="#9ab6c8"/>
  <rect x="10" y="8" width="1" height="1" fill="#000000"/>
  <rect x="11" y="8" width="1" height="1" fill="#ffffff"/>
  <rect x="12" y="8" width="1" height="1" fill="#000000"/>
  <rect x="13" y="8" width="1" height="1" fill="#fcc20f"/>
  <rect x="14" y="8" width="1" height="1" fill="#9c7600"/>
  <rect x="15" y="8" width="1" height="1" fill="#000000"/>
  <rect x="0" y="9" width="1" height="1" fill="#000000"/>
  <rect x="1" y="9" width="1" height="1" fill="#fff3c4"/>
  <rect x="2" y="9" width="9" height="1" fill="#000000"/>
  <rect x="11" y="9" width="1" height="1" fill="#ffffff"/>
  <rect x="12" y="9" width="1" height="1" fill="#000000"/>
  <rect x="13" y="9" width="1" height="1" fill="#fcc20f"/>
  <rect x="14" y="9" width="1" height="1" fill="#9c7600"/>
  <rect x="15" y="9" width="1" height="1" fill="#000000"/>
  <rect x="0" y="10" width="1" height="1" fill="#000000"/>
  <rect x="1" y="10" width="1" height="1" fill="#fff3c4"/>
  <rect x="2" y="10" width="2" height="1" fill="#fcc20f"/>
  <rect x="4" y="10" width="1" height="1" fill="#000000"/>
  <rect x="5" y="10" width="7" height="1" fill="#ffffff"/>
  <rect x="12" y="10" width="1" height="1" fill="#000000"/>
  <rect x="13" y="10" width="1" height="1" fill="#fcc20f"/>
  <rect x="14" y="10" width="1" height="1" fill="#9c7600"/>
  <rect x="15" y="10" width="1" height="1" fill="#000000"/>
  <rect x="0" y="11" width="1" height="1" fill="#000000"/>
  <rect x="1" y="11" width="1" height="1" fill="#fff3c4"/>
  <rect x="2" y="11" width="2" height="1" fill="#fcc20f"/>
  <rect x="4" y="11" width="1" height="1" fill="#000000"/>
  <rect x="5" y="11" width="1" height="1" fill="#ffffff"/>
  <rect x="6" y="11" width="4" height="1" fill="#000000"/>
  <rect x="10" y="11" width="2" height="1" fill="#ffffff"/>
  <rect x="12" y="11" width="1" height="1" fill="#000000"/>
  <rect x="13" y="11" width="1" height="1" fill="#fcc20f"/>
  <rect x="14" y="11" width="1" height="1" fill="#9c7600"/>
  <rect x="15" y="11" width="1" height="1" fill="#000000"/>
  <rect x="0" y="12" width="1" height="1" fill="#000000"/>
  <rect x="1" y="12" width="1" height="1" fill="#fff3c4"/>
  <rect x="2" y="12" width="2" height="1" fill="#fcc20f"/>
  <rect x="4" y="12" width="1" height="1" fill="#000000"/>
  <rect x="5" y="12" width="7" height="1" fill="#ffffff"/>
  <rect x="12" y="12" width="1" height="1" fill="#000000"/>
  <rect x="13" y="12" width="1" height="1" fill="#fcc20f"/>
  <rect x="14" y="12" width="1" height="1" fill="#9c7600"/>
  <rect x="15" y="12" width="1" height="1" fill="#000000"/>
  <rect x="0" y="13" width="1" height="1" fill="#000000"/>
  <rect x="1" y="13" width="1" height="1" fill="#fff3c4"/>
  <rect x="2" y="13" width="2" height="1" fill="#fcc20f"/>
  <rect x="4" y="13" width="9" height="1" fill="#000000"/>
  <rect x="13" y="13" width="1" height="1" fill="#fcc20f"/>
  <rect x="14" y="13" width="1" height="1" fill="#9c7600"/>
  <rect x="15" y="13" width="1" height="1" fill="#000000"/>
  <rect x="0" y="14" width="1" height="1" fill="#000000"/>
  <rect x="1" y="14" width="14" height="1" fill="#9c7600"/>
  <rect x="15" y="14" width="1" height="1" fill="#000000"/>
  <rect x="0" y="15" width="16" height="1" fill="#000000"/>
</svg>
